<svg width="138" height="46" viewBox="0 0 138 46" fill="none" xmlns="http://www.w3.org/2000/svg">
<path d="M1.56 36C1.208 36 0.92 35.888 0.696 35.664C0.472 35.44 0.36 35.152 0.36 34.8V3.6C0.36 3.248 0.472 2.96 0.696 2.736C0.92 2.512 1.208 2.4 1.56 2.4H14.616C18.744 2.4 21.992 3.36 24.36 5.28C26.76 7.168 27.96 9.856 27.96 13.344C27.96 15.616 27.4 17.536 26.28 19.104C25.192 20.672 23.752 21.856 21.96 22.656L28.584 34.464C28.68 34.656 28.728 34.832 28.728 34.992C28.728 35.248 28.616 35.488 28.392 35.712C28.2 35.904 27.96 36 27.672 36H21.336C20.728 36 20.28 35.856 19.992 35.568C19.704 35.248 19.496 34.96 19.368 34.704L13.896 24.144H8.952V34.8C8.952 35.152 8.84 35.44 8.616 35.664C8.392 35.888 8.104 36 7.752 36H1.56ZM8.952 17.376H14.52C16.024 17.376 17.144 17.008 17.88 16.272C18.648 15.536 19.032 14.528 19.032 13.248C19.032 12 18.664 10.992 17.928 10.224C17.224 9.456 16.088 9.072 14.52 9.072H8.952V17.376ZM40.5075 36.48C38.7795 36.48 37.2275 36.16 35.8515 35.52C34.5075 34.848 33.4355 33.952 32.6355 32.832C31.8355 31.712 31.4355 30.448 31.4355 29.04C31.4355 26.768 32.3635 24.976 34.2195 23.664C36.0755 22.32 38.5395 21.408 41.6115 20.928L47.6115 20.016V19.344C47.6115 18.192 47.3715 17.312 46.8915 16.704C46.4115 16.096 45.5315 15.792 44.2515 15.792C43.3555 15.792 42.6195 15.968 42.0435 16.32C41.4995 16.672 41.0675 17.152 40.7475 17.76C40.4595 18.176 40.0595 18.384 39.5475 18.384H34.1715C33.8195 18.384 33.5475 18.288 33.3555 18.096C33.1635 17.872 33.0835 17.616 33.1155 17.328C33.1155 16.752 33.3235 16.096 33.7395 15.36C34.1875 14.592 34.8595 13.84 35.7555 13.104C36.6515 12.368 37.8035 11.76 39.2115 11.28C40.6195 10.8 42.3155 10.56 44.2995 10.56C46.3795 10.56 48.1555 10.8 49.6275 11.28C51.0995 11.76 52.2835 12.432 53.1795 13.296C54.1075 14.16 54.7955 15.184 55.2435 16.368C55.6915 17.52 55.9155 18.8 55.9155 20.208V34.8C55.9155 35.152 55.7875 35.44 55.5315 35.664C55.3075 35.888 55.0355 36 54.7155 36H49.1475C48.7955 36 48.5075 35.888 48.2835 35.664C48.0595 35.44 47.9475 35.152 47.9475 34.8V33.12C47.5315 33.728 46.9715 34.288 46.2675 34.8C45.5635 35.312 44.7315 35.712 43.7715 36C42.8435 36.32 41.7555 36.48 40.5075 36.48ZM42.7635 31.008C43.6915 31.008 44.5235 30.816 45.2595 30.432C46.0275 30.016 46.6195 29.392 47.0355 28.56C47.4835 27.696 47.7075 26.624 47.7075 25.344V24.672L43.6275 25.392C42.1235 25.648 41.0195 26.048 40.3155 26.592C39.6435 27.104 39.3075 27.712 39.3075 28.416C39.3075 28.96 39.4675 29.424 39.7875 29.808C40.1075 30.192 40.5235 30.496 41.0355 30.72C41.5475 30.912 42.1235 31.008 42.7635 31.008ZM65.1765 36C64.8565 36 64.5685 35.888 64.3125 35.664C64.0885 35.44 63.9765 35.152 63.9765 34.8V17.328H60.3285C59.9765 17.328 59.6885 17.216 59.4645 16.992C59.2405 16.768 59.1285 16.48 59.1285 16.128V12.24C59.1285 11.888 59.2405 11.6 59.4645 11.376C59.6885 11.152 59.9765 11.04 60.3285 11.04H63.9765V9.504C63.9765 7.328 64.3925 5.584 65.2245 4.272C66.0885 2.928 67.3045 1.968 68.8725 1.392C70.4405 0.783999 72.3125 0.48 74.4885 0.48H78.2325C78.5525 0.48 78.8245 0.591999 79.0485 0.815998C79.3045 1.04 79.4325 1.328 79.4325 1.68V5.568C79.4325 5.92 79.3045 6.208 79.0485 6.432C78.8245 6.656 78.5525 6.768 78.2325 6.768H74.8725C73.7845 6.768 73.0165 7.024 72.5685 7.536C72.1525 8.048 71.9445 8.784 71.9445 9.744V11.04H81.4005V9.504C81.4005 7.328 81.8165 5.584 82.6485 4.272C83.5125 2.928 84.7285 1.968 86.2965 1.392C87.8965 0.783999 89.7685 0.48 91.9125 0.48H95.0805C95.4005 0.48 95.6725 0.591999 95.8965 0.815998C96.1525 1.04 96.2805 1.328 96.2805 1.68V5.568C96.2805 5.92 96.1525 6.208 95.8965 6.432C95.6725 6.656 95.4005 6.768 95.0805 6.768H92.2965C91.2085 6.768 90.4405 7.024 89.9925 7.536C89.5765 8.048 89.3685 8.784 89.3685 9.744V11.04H98.8725V1.68C98.8725 1.328 98.9845 1.04 99.2085 0.815998C99.4325 0.591999 99.7205 0.48 100.073 0.48H105.593C105.945 0.48 106.233 0.591999 106.457 0.815998C106.713 1.04 106.841 1.328 106.841 1.68V34.8C106.841 35.152 106.713 35.44 106.457 35.664C106.233 35.888 105.945 36 105.593 36H100.073C99.7205 36 99.4325 35.888 99.2085 35.664C98.9845 35.44 98.8725 35.152 98.8725 34.8V17.328H89.3685V34.8C89.3685 35.152 89.2565 35.44 89.0325 35.664C88.8085 35.888 88.5205 36 88.1685 36H82.6005C82.2805 36 81.9925 35.888 81.7365 35.664C81.5125 35.44 81.4005 35.152 81.4005 34.8V17.328H71.9445V34.8C71.9445 35.152 71.8325 35.44 71.6085 35.664C71.3845 35.888 71.0965 36 70.7445 36H65.1765ZM117.129 45.12C116.841 45.12 116.601 45.024 116.409 44.832C116.217 44.64 116.121 44.4 116.121 44.112C116.121 44.048 116.121 43.952 116.121 43.824C116.153 43.728 116.201 43.616 116.265 43.488L120.009 34.464L110.793 12.672C110.697 12.448 110.649 12.256 110.649 12.096C110.713 11.808 110.841 11.568 111.033 11.376C111.225 11.152 111.465 11.04 111.753 11.04H117.225C117.641 11.04 117.945 11.152 118.137 11.376C118.361 11.568 118.505 11.792 118.569 12.048L124.089 26.016L129.705 12.048C129.833 11.792 129.993 11.568 130.185 11.376C130.409 11.152 130.729 11.04 131.145 11.04H136.521C136.809 11.04 137.049 11.152 137.241 11.376C137.465 11.568 137.577 11.792 137.577 12.048C137.577 12.208 137.529 12.416 137.433 12.672L123.849 44.112C123.753 44.368 123.593 44.592 123.369 44.784C123.145 45.008 122.825 45.12 122.409 45.12H117.129Z" fill="#1BAC4B"/>
</svg>
